<svg xmlns="http://www.w3.org/2000/svg" xmlns:xlink="http://www.w3.org/1999/xlink" version="1.1" width="856.8756pt" height="568.52627pt" viewBox="0 0 856.8756 568.52627">
<defs>
<clipPath id="clip_0">
<path d="M142 48H239V496.961H142Z"/>
</clipPath>
<clipPath id="clip_1">
<path d="M0 0H857V569H0Z"/>
</clipPath>
<clipPath id="clip_2">
<path d="M334 29H432V496.961H334Z"/>
</clipPath>
<clipPath id="clip_3">
<path d="M0 0H857V569H0Z"/>
</clipPath>
<clipPath id="clip_4">
<path d="M334.797 30.523H431.035V496.961H334.797Z"/>
</clipPath>
<g id="pattern_tile_5">
<clipPath id="clip_6">
<path transform="matrix(1,0,0,1,0,.000000000000042633)" d="M0 0H72V72H0Z"/>
</clipPath>
<g clip-path="url(#clip_6)">
<path transform="matrix(1,0,0,1,0,.000000000000042633)" d="M0 0H72V72H0Z" fill="#1f77b4"/>
<path transform="matrix(1,0,0,1,0,.000000000000042633)" d="M-36 36 36-36M-24 48 48-24M-12 60 60-12M0 72 72 0M12 84 84 12M24 96 96 24M36 108 108 36" fill="#ffffff"/>
<path transform="matrix(1,0,0,1,0,.000000000000042633)" stroke-width="1" stroke-linecap="butt" stroke-miterlimit="4" stroke-linejoin="miter" fill="none" stroke="#ffffff" stroke-opacity=".8" d="M-36 36 36-36M-24 48 48-24M-12 60 60-12M0 72 72 0M12 84 84 12M24 96 96 24M36 108 108 36"/>
</g>
</g>
<pattern id="pattern_5" patternUnits="userSpaceOnUse" patternContentUnits="userSpaceOnUse" x="0" y="0" width="72" height="72">
<g transform="matrix(1,-0,-0,1,0,-.000000000000042633)">
<use x="0" y="0" xlink:href="#pattern_tile_5"/>
</g>
</pattern>
<clipPath id="clip_7">
<path d="M527 77H624V496.961H527Z"/>
</clipPath>
<clipPath id="clip_8">
<path d="M0 0H857V569H0Z"/>
</clipPath>
<clipPath id="clip_9">
<path d="M719 50H816V496.961H719Z"/>
</clipPath>
<clipPath id="clip_10">
<path d="M0 0H857V569H0Z"/>
</clipPath>
<clipPath id="clip_11">
<path d="M108.637 496H849.676V496.961H108.637Z"/>
</clipPath>
<clipPath id="clip_12">
<path d="M108.637 431H849.676V433H108.637Z"/>
</clipPath>
<clipPath id="clip_13">
<path d="M108.637 366H849.676V368H108.637Z"/>
</clipPath>
<clipPath id="clip_14">
<path d="M108.637 301H849.676V303H108.637Z"/>
</clipPath>
<clipPath id="clip_15">
<path d="M108.637 236H849.676V238H108.637Z"/>
</clipPath>
<clipPath id="clip_16">
<path d="M108.637 171H849.676V173H108.637Z"/>
</clipPath>
<clipPath id="clip_17">
<path d="M108.637 106H849.676V108H108.637Z"/>
</clipPath>
<clipPath id="clip_18">
<path d="M108.637 41H849.676V43H108.637Z"/>
</clipPath>
</defs>
<g>
<path d="M0 0H856.875V568.527H0Z" fill="#ffffff"/>
<path d="M108.637 7.199H849.676V496.961H108.637Z" fill="#ffffff"/>
<g clip-path="url(#clip_0)">
<g opacity=".8">
<g clip-path="url(#clip_1)">
<path d="M142.32 48.91H238.55802V496.961H142.32Z" fill="#549bcb"/>
</g>
</g>
</g>
<g clip-path="url(#clip_2)">
<g opacity=".8">
<g clip-path="url(#clip_3)">
<g clip-path="url(#clip_4)">
<rect transform="matrix(1,0,0,1,0,.000000000000042633)" fill="url(#pattern_5)" x="334.797" y="30.523" width="96.23801" height="466.438"/>
</g>
<path stroke-width="1.5" stroke-linecap="butt" stroke-miterlimit="4" stroke-linejoin="miter" fill="none" stroke="#ffffff" d="M334.797 30.523H431.035V496.961H334.797Z"/>
</g>
</g>
</g>
<g clip-path="url(#clip_7)">
<g opacity=".8">
<g clip-path="url(#clip_8)">
<path d="M527.273 77.293H623.515V496.961H527.273Z" fill="#a8d4f1"/>
</g>
</g>
</g>
<g clip-path="url(#clip_9)">
<g opacity=".8">
<g clip-path="url(#clip_10)">
<path d="M719.754 50.977H815.992V496.961H719.754Z" fill="#5a9fce"/>
</g>
</g>
</g>
<path stroke-width=".8" stroke-linecap="butt" stroke-linejoin="round" fill="none" stroke="#000000" d="M190.438 496.961V500.461"/>
<path d="M185.297 524H182.84V508.32C182.246 508.887 181.469 509.449 180.508 510.016 179.547 510.582 178.684 511.004 177.918 511.289V508.906C179.293 508.262 180.496 507.477 181.527 506.559 182.555 505.637 183.285 504.742 183.715 503.875H185.297ZM185.297 524"/>
<path d="M191.605 514.117C191.605 511.746 191.848 509.84 192.336 508.395 192.82 506.949 193.547 505.836 194.504 505.055 195.469 504.27 196.676 503.875 198.137 503.875 199.211 503.875 200.156 504.094 200.965 504.527 201.777 504.961 202.445 505.586 202.977 506.402 203.504 507.215 203.922 508.207 204.223 509.379 204.523 510.551 204.672 512.129 204.672 514.117 204.672 516.469 204.43 518.367 203.945 519.812 203.465 521.254 202.742 522.371 201.781 523.16 200.82 523.949 199.605 524.344 198.137 524.344 196.207 524.344 194.688 523.652 193.586 522.266 192.266 520.598 191.605 517.883 191.605 514.117ZM194.133 514.117C194.133 517.41 194.52 519.598 195.289 520.691 196.059 521.777 197.008 522.32 198.137 522.32 199.27 522.32 200.219 521.773 200.988 520.68 201.758 519.586 202.145 517.398 202.145 514.117 202.145 510.816 201.758 508.625 200.988 507.543 200.219 506.457 199.258 505.914 198.109 505.914 196.98 505.914 196.078 506.395 195.402 507.352 194.555 508.57 194.133 510.824 194.133 514.117ZM194.133 514.117"/>
<path stroke-width=".8" stroke-linecap="butt" stroke-linejoin="round" fill="none" stroke="#000000" d="M382.918 496.961V500.461"/>
<path d="M368.512 518.75 371.09 518.531C371.285 519.789 371.727 520.738 372.426 521.371 373.121 522.004 373.965 522.32 374.949 522.32 376.133 522.32 377.137 521.875 377.957 520.984 378.773 520.086 379.184 518.902 379.184 517.426 379.184 516.023 378.793 514.918 378.004 514.105 377.215 513.293 376.184 512.887 374.906 512.887 374.113 512.887 373.398 513.066 372.758 513.426 372.121 513.785 371.621 514.254 371.258 514.828L368.949 514.527 370.887 504.23H380.855V506.586H372.855L371.777 511.969C372.98 511.129 374.242 510.711 375.562 510.711 377.312 510.711 378.789 511.316 379.988 512.531 381.195 513.742 381.797 515.305 381.797 517.207 381.797 519.023 381.27 520.59 380.215 521.91 378.926 523.531 377.172 524.344 374.949 524.344 373.125 524.344 371.637 523.832 370.484 522.812 369.332 521.793 368.672 520.438 368.512 518.75ZM368.512 518.75"/>
<path d="M384.082 514.117C384.082 511.746 384.324 509.84 384.812 508.395 385.301 506.949 386.023 505.836 386.984 505.055 387.945 504.27 389.156 503.875 390.613 503.875 391.691 503.875 392.633 504.094 393.445 504.527 394.254 504.961 394.926 505.586 395.453 506.402 395.984 507.215 396.398 508.207 396.699 509.379 397 510.551 397.148 512.129 397.148 514.117 397.148 516.469 396.906 518.367 396.426 519.812 395.941 521.254 395.223 522.371 394.258 523.16 393.297 523.949 392.082 524.344 390.613 524.344 388.684 524.344 387.168 523.652 386.062 522.266 384.742 520.598 384.082 517.883 384.082 514.117ZM386.609 514.117C386.609 517.41 386.996 519.598 387.766 520.691 388.535 521.777 389.484 522.32 390.613 522.32 391.746 522.32 392.695 521.773 393.465 520.68 394.238 519.586 394.621 517.398 394.621 514.117 394.621 510.816 394.238 508.625 393.465 507.543 392.695 506.457 391.738 505.914 390.586 505.914 389.457 505.914 388.555 506.395 387.879 507.352 387.035 508.57 386.609 510.824 386.609 514.117ZM386.609 514.117"/>
<path stroke-width=".8" stroke-linecap="butt" stroke-linejoin="round" fill="none" stroke="#000000" d="M575.395 496.961V500.461"/>
<path d="M562.469 524H560.012V508.32C559.418 508.887 558.641 509.449 557.68 510.016 556.715 510.582 555.852 511.004 555.09 511.289V508.906C556.465 508.262 557.668 507.477 558.699 506.559 559.727 505.637 560.457 504.742 560.887 503.875H562.469ZM562.469 524"/>
<path d="M568.773 514.117C568.773 511.746 569.02 509.84 569.504 508.395 569.992 506.949 570.715 505.836 571.676 505.055 572.637 504.27 573.848 503.875 575.305 503.875 576.383 503.875 577.328 504.094 578.137 504.527 578.949 504.961 579.617 505.586 580.145 506.402 580.676 507.215 581.09 508.207 581.391 509.379 581.691 510.551 581.844 512.129 581.844 514.117 581.844 516.469 581.602 518.367 581.117 519.812 580.637 521.254 579.914 522.371 578.949 523.16 577.992 523.949 576.777 524.344 575.305 524.344 573.375 524.344 571.859 523.652 570.758 522.266 569.434 520.598 568.773 517.883 568.773 514.117ZM571.305 514.117C571.305 517.41 571.688 519.598 572.457 520.691 573.227 521.777 574.18 522.32 575.305 522.32 576.438 522.32 577.391 521.773 578.16 520.68 578.93 519.586 579.312 517.398 579.312 514.117 579.312 510.816 578.93 508.625 578.16 507.543 577.391 506.457 576.43 505.914 575.281 505.914 574.152 505.914 573.25 506.395 572.57 507.352 571.727 508.57 571.305 510.824 571.305 514.117ZM571.305 514.117"/>
<path d="M584.348 514.117C584.348 511.746 584.59 509.84 585.078 508.395 585.566 506.949 586.289 505.836 587.246 505.055 588.211 504.27 589.422 503.875 590.879 503.875 591.953 503.875 592.898 504.094 593.711 504.527 594.52 504.961 595.191 505.586 595.719 506.402 596.25 507.215 596.664 508.207 596.965 509.379 597.266 510.551 597.414 512.129 597.414 514.117 597.414 516.469 597.172 518.367 596.688 519.812 596.207 521.254 595.484 522.371 594.523 523.16 593.562 523.949 592.348 524.344 590.879 524.344 588.949 524.344 587.43 523.652 586.328 522.266 585.008 520.598 584.348 517.883 584.348 514.117ZM586.875 514.117C586.875 517.41 587.262 519.598 588.031 520.691 588.801 521.777 589.75 522.32 590.879 522.32 592.012 522.32 592.961 521.773 593.73 520.68 594.5 519.586 594.887 517.398 594.887 514.117 594.887 510.816 594.5 508.625 593.73 507.543 592.961 506.457 592 505.914 590.852 505.914 589.723 505.914 588.82 506.395 588.145 507.352 587.297 508.57 586.875 510.824 586.875 514.117ZM586.875 514.117"/>
<path stroke-width=".8" stroke-linecap="butt" stroke-linejoin="round" fill="none" stroke="#000000" d="M767.871 496.961V500.461"/>
<path d="M754.945 524H752.488V508.32C751.895 508.887 751.117 509.449 750.156 510.016 749.195 510.582 748.332 511.004 747.566 511.289V508.906C748.941 508.262 750.145 507.477 751.176 506.559 752.203 505.637 752.934 504.742 753.363 503.875H754.945ZM754.945 524"/>
<path d="M761.254 518.75 763.832 518.531C764.027 519.789 764.473 520.738 765.168 521.371 765.867 522.004 766.707 522.32 767.691 522.32 768.875 522.32 769.879 521.875 770.699 520.984 771.52 520.086 771.926 518.902 771.926 517.426 771.926 516.023 771.535 514.918 770.746 514.105 769.957 513.293 768.926 512.887 767.648 512.887 766.855 512.887 766.141 513.066 765.5 513.426 764.863 513.785 764.363 514.254 764 514.828L761.691 514.527 763.629 504.23H773.598V506.586H765.598L764.52 511.969C765.723 511.129 766.984 510.711 768.305 510.711 770.055 510.711 771.531 511.316 772.734 512.531 773.938 513.742 774.539 515.305 774.539 517.207 774.539 519.023 774.012 520.59 772.957 521.91 771.668 523.531 769.914 524.344 767.691 524.344 765.871 524.344 764.379 523.832 763.227 522.812 762.074 521.793 761.414 520.438 761.254 518.75ZM761.254 518.75"/>
<path d="M776.824 514.117C776.824 511.746 777.07 509.84 777.555 508.395 778.043 506.949 778.766 505.836 779.727 505.055 780.688 504.27 781.898 503.875 783.355 503.875 784.434 503.875 785.375 504.094 786.188 504.527 787 504.961 787.668 505.586 788.195 506.402 788.727 507.215 789.141 508.207 789.441 509.379 789.742 510.551 789.895 512.129 789.895 514.117 789.895 516.469 789.652 518.367 789.168 519.812 788.684 521.254 787.965 522.371 787 523.16 786.043 523.949 784.828 524.344 783.355 524.344 781.426 524.344 779.91 523.652 778.809 522.266 777.484 520.598 776.824 517.883 776.824 514.117ZM779.355 514.117C779.355 517.41 779.738 519.598 780.508 520.691 781.277 521.777 782.227 522.32 783.355 522.32 784.488 522.32 785.438 521.773 786.211 520.68 786.98 519.586 787.363 517.398 787.363 514.117 787.363 510.816 786.98 508.625 786.211 507.543 785.438 506.457 784.48 505.914 783.332 505.914 782.203 505.914 781.301 506.395 780.621 507.352 779.777 508.57 779.355 510.824 779.355 514.117ZM779.355 514.117"/>
<path d="M308.812 555.406V533.934H317.941C320.234 533.934 321.902 534.125 322.941 534.516 323.984 534.898 324.816 535.586 325.441 536.57 326.066 537.555 326.379 538.684 326.379 539.953 326.379 541.562 325.902 542.895 324.953 543.945 324.008 544.996 322.59 545.656 320.707 545.93 321.645 546.477 322.418 547.078 323.027 547.734 323.641 548.387 324.461 549.547 325.496 551.215L328.121 555.406H322.934L319.801 550.734C318.688 549.062 317.922 548.012 317.516 547.578 317.105 547.145 316.672 546.844 316.211 546.684 315.75 546.52 315.023 546.438 314.027 546.438H313.148V555.406ZM313.148 543.012H316.355C318.438 543.012 319.734 542.926 320.25 542.75 320.77 542.574 321.176 542.273 321.469 541.844 321.766 541.414 321.91 540.875 321.91 540.227 321.91 539.508 321.719 538.922 321.328 538.48 320.945 538.035 320.402 537.754 319.699 537.637 319.344 537.59 318.289 537.566 316.535 537.566H313.148ZM313.148 543.012"/>
<path d="M339.441 550.457 343.543 551.145C343.02 552.648 342.184 553.793 341.043 554.582 339.906 555.367 338.484 555.758 336.777 555.758 334.074 555.758 332.07 554.875 330.77 553.105 329.746 551.688 329.23 549.902 329.23 547.746 329.23 545.168 329.906 543.148 331.254 541.691 332.602 540.227 334.309 539.496 336.367 539.496 338.684 539.496 340.508 540.262 341.848 541.789 343.184 543.316 343.824 545.66 343.762 548.816H333.449C333.48 550.035 333.816 550.984 334.449 551.664 335.082 552.344 335.875 552.684 336.82 552.684 337.465 552.684 338.004 552.508 338.441 552.156 338.883 551.805 339.215 551.238 339.441 550.457ZM339.676 546.293C339.648 545.102 339.34 544.199 338.754 543.578 338.168 542.957 337.457 542.648 336.613 542.648 335.719 542.648 334.977 542.973 334.387 543.625 333.805 544.281 333.516 545.172 333.527 546.293ZM339.676 546.293"/>
<path d="M351.398 555.406 345.125 539.848H349.445L352.375 547.789 353.23 550.441C353.453 549.766 353.594 549.32 353.652 549.105 353.789 548.668 353.938 548.23 354.094 547.789L357.051 539.848H361.281L355.105 555.406ZM351.398 555.406"/>
<path d="M372.812 550.457 376.914 551.145C376.387 552.648 375.555 553.793 374.414 554.582 373.277 555.367 371.855 555.758 370.148 555.758 367.441 555.758 365.438 554.875 364.141 553.105 363.113 551.688 362.602 549.902 362.602 547.746 362.602 545.168 363.273 543.148 364.621 541.691 365.973 540.227 367.676 539.496 369.734 539.496 372.051 539.496 373.879 540.262 375.215 541.789 376.555 543.316 377.191 545.66 377.133 548.816H366.82C366.852 550.035 367.184 550.984 367.82 551.664 368.453 552.344 369.242 552.684 370.191 552.684 370.836 552.684 371.375 552.508 371.812 552.156 372.254 551.805 372.586 551.238 372.812 550.457ZM373.047 546.293C373.016 545.102 372.711 544.199 372.121 543.578 371.539 542.957 370.824 542.648 369.984 542.648 369.086 542.648 368.344 542.973 367.758 543.625 367.172 544.281 366.887 545.172 366.895 546.293ZM373.047 546.293"/>
<path d="M384.43 555.406H380.312V539.848H384.137V542.062C384.789 541.016 385.379 540.328 385.898 540 386.422 539.664 387.016 539.496 387.68 539.496 388.617 539.496 389.523 539.758 390.391 540.273L389.117 543.859C388.422 543.414 387.777 543.191 387.184 543.191 386.605 543.191 386.117 543.352 385.719 543.668 385.316 543.984 385 544.559 384.77 545.391 384.543 546.219 384.43 547.953 384.43 550.602ZM384.43 555.406"/>
<path d="M390.711 550.969 394.844 550.34C395.02 551.141 395.375 551.746 395.91 552.164 396.449 552.578 397.203 552.785 398.172 552.785 399.234 552.785 400.031 552.59 400.57 552.199 400.934 551.926 401.113 551.559 401.113 551.098 401.113 550.785 401.016 550.527 400.82 550.324 400.617 550.129 400.156 549.945 399.445 549.781 396.125 549.051 394.02 548.383 393.133 547.773 391.898 546.934 391.285 545.766 391.285 544.273 391.285 542.926 391.816 541.793 392.879 540.875 393.945 539.957 395.594 539.496 397.832 539.496 399.961 539.496 401.543 539.844 402.578 540.539 403.613 541.23 404.328 542.258 404.719 543.613L400.832 544.328C400.668 543.727 400.352 543.266 399.887 542.941 399.422 542.617 398.762 542.453 397.902 542.453 396.82 542.453 396.047 542.605 395.578 542.91 395.266 543.125 395.109 543.402 395.109 543.742 395.109 544.039 395.246 544.289 395.516 544.492 395.891 544.766 397.172 545.152 399.359 545.652 401.555 546.148 403.086 546.758 403.953 547.48 404.812 548.215 405.242 549.234 405.242 550.539 405.242 551.969 404.648 553.195 403.457 554.219 402.266 555.246 400.504 555.758 398.172 555.758 396.051 555.758 394.375 555.328 393.137 554.469 391.902 553.609 391.094 552.441 390.711 550.969ZM390.711 550.969"/>
<path d="M417.855 550.457 421.957 551.145C421.43 552.648 420.598 553.793 419.457 554.582 418.32 555.367 416.898 555.758 415.191 555.758 412.484 555.758 410.484 554.875 409.184 553.105 408.156 551.688 407.645 549.902 407.645 547.746 407.645 545.168 408.32 543.148 409.664 541.691 411.016 540.227 412.719 539.496 414.781 539.496 417.094 539.496 418.922 540.262 420.258 541.789 421.598 543.316 422.234 545.66 422.176 548.816H411.863C411.895 550.035 412.227 550.984 412.863 551.664 413.496 552.344 414.289 552.684 415.234 552.684 415.879 552.684 416.418 552.508 416.855 552.156 417.297 551.805 417.629 551.238 417.855 550.457ZM418.09 546.293C418.062 545.102 417.754 544.199 417.164 543.578 416.582 542.957 415.867 542.648 415.027 542.648 414.133 542.648 413.391 542.973 412.801 543.625 412.219 544.281 411.93 545.172 411.938 546.293ZM418.09 546.293"/>
<path d="M433.883 533.934H441.805C443.594 533.934 444.957 534.07 445.895 534.34 447.152 534.711 448.23 535.371 449.129 536.32 450.027 537.266 450.711 538.426 451.18 539.797 451.648 541.168 451.883 542.859 451.883 544.875 451.883 546.641 451.664 548.164 451.227 549.445 450.691 551.008 449.922 552.27 448.926 553.234 448.172 553.969 447.156 554.543 445.879 554.953 444.922 555.254 443.645 555.406 442.039 555.406H433.883ZM438.219 537.566V551.789H441.453C442.668 551.789 443.543 551.719 444.078 551.582 444.781 551.406 445.363 551.109 445.828 550.691 446.289 550.27 446.668 549.578 446.961 548.617 447.254 547.656 447.402 546.344 447.402 544.68 447.402 543.023 447.254 541.75 446.961 540.859 446.668 539.969 446.258 539.277 445.73 538.781 445.203 538.281 444.535 537.945 443.727 537.766 443.121 537.633 441.934 537.566 440.164 537.566ZM438.219 537.566"/>
<path d="M455.531 537.738V533.934H459.648V537.738ZM455.531 555.406V539.848H459.648V555.406ZM455.531 555.406"/>
<path d="M462.066 539.848H464.352V538.676C464.352 537.367 464.492 536.391 464.77 535.746 465.047 535.102 465.559 534.578 466.309 534.176 467.055 533.77 467.996 533.566 469.137 533.566 470.309 533.566 471.457 533.742 472.582 534.094L472.027 536.965C471.371 536.809 470.742 536.73 470.137 536.73 469.539 536.73 469.113 536.871 468.852 537.148 468.598 537.426 468.469 537.961 468.469 538.75V539.848H471.543V543.086H468.469V555.406H464.352V543.086H462.066ZM462.066 539.848"/>
<path d="M472.055 539.848H474.344V538.676C474.344 537.367 474.48 536.391 474.762 535.746 475.039 535.102 475.551 534.578 476.297 534.176 477.043 533.77 477.988 533.566 479.129 533.566 480.301 533.566 481.449 533.742 482.574 534.094L482.016 536.965C481.363 536.809 480.734 536.73 480.129 536.73 479.531 536.73 479.102 536.871 478.844 537.148 478.586 537.426 478.457 537.961 478.457 538.75V539.848H481.535V543.086H478.457V555.406H474.344V543.086H472.055ZM472.055 539.848"/>
<path d="M494.086 555.406V553.078C493.523 553.906 492.777 554.562 491.852 555.039 490.93 555.52 489.957 555.758 488.93 555.758 487.883 555.758 486.945 555.527 486.113 555.07 485.285 554.609 484.688 553.965 484.312 553.137 483.945 552.305 483.762 551.156 483.762 549.691V539.848H487.875V546.996C487.875 549.184 487.953 550.523 488.102 551.02 488.254 551.512 488.531 551.902 488.93 552.191 489.332 552.477 489.84 552.621 490.453 552.621 491.156 552.621 491.789 552.43 492.344 552.047 492.898 551.656 493.281 551.18 493.484 550.609 493.688 550.039 493.793 548.641 493.793 546.41V539.848H497.906V555.406ZM494.086 555.406"/>
<path d="M500.723 550.969 504.852 550.34C505.031 551.141 505.387 551.746 505.922 552.164 506.457 552.578 507.211 552.785 508.18 552.785 509.242 552.785 510.043 552.59 510.578 552.199 510.941 551.926 511.125 551.559 511.125 551.098 511.125 550.785 511.023 550.527 510.828 550.324 510.625 550.129 510.168 549.945 509.453 549.781 506.133 549.051 504.027 548.383 503.141 547.773 501.91 546.934 501.293 545.766 501.293 544.273 501.293 542.926 501.824 541.793 502.887 540.875 503.953 539.957 505.605 539.496 507.844 539.496 509.969 539.496 511.551 539.844 512.586 540.539 513.625 541.23 514.336 542.258 514.727 543.613L510.844 544.328C510.676 543.727 510.359 543.266 509.895 542.941 509.434 542.617 508.773 542.453 507.914 542.453 506.832 542.453 506.055 542.605 505.586 542.91 505.273 543.125 505.117 543.402 505.117 543.742 505.117 544.039 505.254 544.289 505.527 544.492 505.898 544.766 507.18 545.152 509.371 545.652 511.562 546.148 513.094 546.758 513.965 547.48 514.824 548.215 515.254 549.234 515.254 550.539 515.254 551.969 514.656 553.195 513.469 554.219 512.277 555.246 510.516 555.758 508.18 555.758 506.062 555.758 504.383 555.328 503.145 554.469 501.91 553.609 501.102 552.441 500.723 550.969ZM500.723 550.969"/>
<path d="M518.855 537.738V533.934H522.977V537.738ZM518.855 555.406V539.848H522.977V555.406ZM518.855 555.406"/>
<path d="M526.238 547.41C526.238 546.039 526.574 544.719 527.25 543.438 527.926 542.156 528.879 541.18 530.113 540.508 531.348 539.836 532.73 539.496 534.254 539.496 536.605 539.496 538.535 540.262 540.039 541.789 541.543 543.316 542.293 545.25 542.293 547.582 542.293 549.938 541.535 551.887 540.016 553.438 538.496 554.984 536.586 555.758 534.281 555.758 532.855 555.758 531.496 555.438 530.203 554.793 528.91 554.145 527.926 553.199 527.25 551.957 526.574 550.711 526.238 549.195 526.238 547.41ZM530.457 547.629C530.457 549.172 530.824 550.352 531.555 551.172 532.289 551.992 533.191 552.402 534.27 552.402 535.344 552.402 536.242 551.992 536.969 551.172 537.695 550.352 538.059 549.16 538.059 547.598 538.059 546.074 537.695 544.906 536.969 544.086 536.242 543.266 535.344 542.852 534.27 542.852 533.191 542.852 532.289 543.266 531.555 544.086 530.824 544.906 530.457 546.086 530.457 547.629ZM530.457 547.629"/>
<path d="M559.668 555.406H555.551V547.465C555.551 545.789 555.465 544.703 555.289 544.207 555.113 543.715 554.828 543.332 554.43 543.059 554.035 542.785 553.559 542.648 553 542.648 552.289 542.648 551.648 542.844 551.086 543.234 550.52 543.625 550.129 544.141 549.918 544.789 549.707 545.434 549.602 546.625 549.602 548.359V555.406H545.488V539.848H549.312V542.137C550.668 540.375 552.379 539.496 554.441 539.496 555.348 539.496 556.176 539.66 556.926 539.988 557.68 540.316 558.246 540.734 558.633 541.246 559.02 541.75 559.289 542.328 559.438 542.969 559.59 543.613 559.668 544.535 559.668 545.734ZM559.668 555.406"/>
<path d="M571.105 548.418 575.324 548.008C575.582 549.426 576.098 550.465 576.871 551.133 577.648 551.793 578.695 552.125 580.012 552.125 581.41 552.125 582.461 551.828 583.168 551.238 583.879 550.648 584.23 549.957 584.23 549.168 584.23 548.656 584.082 548.227 583.785 547.867 583.488 547.512 582.969 547.203 582.227 546.941 581.719 546.762 580.562 546.449 578.758 546.004 576.434 545.426 574.801 544.719 573.863 543.879 572.543 542.695 571.887 541.254 571.887 539.559 571.887 538.465 572.195 537.441 572.812 536.488 573.434 535.535 574.328 534.809 575.496 534.312 576.664 533.816 578.074 533.566 579.723 533.566 582.418 533.566 584.445 534.156 585.809 535.34 587.168 536.52 587.887 538.098 587.953 540.07L583.617 540.262C583.434 539.156 583.035 538.363 582.422 537.879 581.812 537.395 580.898 537.152 579.676 537.152 578.418 537.152 577.43 537.414 576.719 537.93 576.258 538.262 576.027 538.707 576.027 539.262 576.027 539.773 576.246 540.207 576.676 540.566 577.223 541.023 578.551 541.504 580.66 542.004 582.77 542.5 584.328 543.016 585.34 543.551 586.352 544.082 587.141 544.809 587.711 545.73 588.281 546.652 588.566 547.793 588.566 549.152 588.566 550.383 588.227 551.531 587.543 552.609 586.859 553.684 585.895 554.48 584.645 555.004 583.395 555.523 581.836 555.785 579.973 555.785 577.254 555.785 575.168 555.16 573.715 553.906 572.262 552.648 571.391 550.82 571.105 548.418ZM571.105 548.418"/>
<path d="M599.32 539.848V543.129H596.508V549.402C596.508 550.672 596.535 551.41 596.586 551.617 596.645 551.828 596.766 552 596.957 552.141 597.148 552.277 597.379 552.344 597.652 552.344 598.031 552.344 598.582 552.211 599.305 551.945L599.656 555.145C598.699 555.555 597.617 555.758 596.402 555.758 595.664 555.758 594.996 555.633 594.398 555.387 593.805 555.137 593.367 554.812 593.09 554.418 592.812 554.02 592.617 553.484 592.508 552.812 592.422 552.336 592.379 551.367 592.379 549.914V543.129H590.488V539.848H592.379V536.758L596.508 534.355V539.848ZM599.32 539.848"/>
<path d="M611.184 550.457 615.285 551.145C614.762 552.648 613.93 553.793 612.789 554.582 611.652 555.367 610.23 555.758 608.523 555.758 605.816 555.758 603.812 554.875 602.512 553.105 601.488 551.688 600.977 549.902 600.977 547.746 600.977 545.168 601.648 543.148 602.996 541.691 604.348 540.227 606.051 539.496 608.109 539.496 610.426 539.496 612.254 540.262 613.59 541.789 614.926 543.316 615.566 545.66 615.508 548.816H605.195C605.227 550.035 605.559 550.984 606.191 551.664 606.828 552.344 607.617 552.684 608.566 552.684 609.207 552.684 609.75 552.508 610.188 552.156 610.629 551.805 610.961 551.238 611.184 550.457ZM611.418 546.293C611.391 545.102 611.082 544.199 610.496 543.578 609.91 542.957 609.199 542.648 608.359 542.648 607.461 542.648 606.719 542.973 606.133 543.625 605.547 544.281 605.262 545.172 605.27 546.293ZM611.418 546.293"/>
<path d="M618.742 539.848H622.582V542.137C623.082 541.355 623.754 540.719 624.602 540.234 625.453 539.742 626.395 539.496 627.434 539.496 629.238 539.496 630.773 540.203 632.031 541.621 633.293 543.035 633.922 545.008 633.922 547.539 633.922 550.137 633.285 552.156 632.012 553.598 630.746 555.039 629.207 555.758 627.402 555.758 626.543 555.758 625.762 555.586 625.062 555.246 624.363 554.902 623.633 554.316 622.863 553.488V561.328H618.742ZM622.816 547.363C622.816 549.113 623.164 550.406 623.855 551.238 624.551 552.074 625.395 552.492 626.395 552.492 627.348 552.492 628.145 552.109 628.777 551.344 629.414 550.574 629.73 549.316 629.73 547.57 629.73 545.938 629.402 544.727 628.746 543.938 628.094 543.145 627.285 542.75 626.316 542.75 625.312 542.75 624.477 543.141 623.809 543.918 623.148 544.691 622.816 545.84 622.816 547.363ZM622.816 547.363"/>
<path d="M635.738 550.969 639.867 550.34C640.043 551.141 640.402 551.746 640.934 552.164 641.473 552.578 642.227 552.785 643.195 552.785 644.258 552.785 645.059 552.59 645.594 552.199 645.957 551.926 646.137 551.559 646.137 551.098 646.137 550.785 646.039 550.527 645.844 550.324 645.641 550.129 645.184 549.945 644.469 549.781 641.148 549.051 639.043 548.383 638.156 547.773 636.926 546.934 636.309 545.766 636.309 544.273 636.309 542.926 636.84 541.793 637.902 540.875 638.969 539.957 640.621 539.496 642.855 539.496 644.984 539.496 646.566 539.844 647.602 540.539 648.637 541.23 649.352 542.258 649.742 543.613L645.855 544.328C645.691 543.727 645.375 543.266 644.91 542.941 644.449 542.617 643.785 542.453 642.926 542.453 641.848 542.453 641.07 542.605 640.602 542.91 640.289 543.125 640.133 543.402 640.133 543.742 640.133 544.039 640.27 544.289 640.543 544.492 640.914 544.766 642.195 545.152 644.387 545.652 646.578 546.148 648.109 546.758 648.98 547.48 649.84 548.215 650.27 549.234 650.27 550.539 650.27 551.969 649.672 553.195 648.48 554.219 647.293 555.246 645.527 555.758 643.195 555.758 641.074 555.758 639.398 555.328 638.16 554.469 636.926 553.609 636.117 552.441 635.738 550.969ZM635.738 550.969"/>
<g clip-path="url(#clip_11)">
<path stroke-width=".8" stroke-linecap="square" stroke-linejoin="round" fill="none" stroke="#b0b0b0" stroke-opacity=".15" d="M108.637 496.961H849.676"/>
</g>
<path stroke-width=".8" stroke-linecap="butt" stroke-linejoin="round" fill="none" stroke="#000000" d="M108.637 496.961H105.137"/>
<path d="M87.23 497.098C87.23 494.727 87.473 492.82 87.961 491.375 88.445 489.93 89.168 488.816 90.129 488.031 91.094 487.25 92.301 486.855 93.762 486.855 94.836 486.855 95.781 487.074 96.59 487.508 97.402 487.941 98.07 488.562 98.598 489.379 99.129 490.195 99.547 491.188 99.848 492.359 100.148 493.527 100.297 495.109 100.297 497.098 100.297 499.449 100.055 501.348 99.57 502.789 99.09 504.234 98.367 505.352 97.406 506.141 96.445 506.93 95.23 507.32 93.762 507.32 91.828 507.32 90.312 506.629 89.211 505.242 87.891 503.574 87.23 500.859 87.23 497.098ZM89.758 497.098C89.758 500.387 90.141 502.578 90.914 503.668 91.684 504.758 92.633 505.301 93.762 505.301 94.891 505.301 95.844 504.754 96.613 503.66 97.383 502.566 97.77 500.379 97.77 497.098 97.77 493.797 97.383 491.605 96.613 490.523 95.844 489.438 94.883 488.895 93.734 488.895 92.605 488.895 91.703 489.371 91.027 490.328 90.18 491.551 89.758 493.805 89.758 497.098ZM89.758 497.098"/>
<g clip-path="url(#clip_12)">
<path stroke-width=".8" stroke-linecap="square" stroke-linejoin="round" fill="none" stroke="#b0b0b0" stroke-opacity=".15" d="M108.637 431.906H849.676"/>
</g>
<path stroke-width=".8" stroke-linecap="butt" stroke-linejoin="round" fill="none" stroke="#000000" d="M108.637 431.906H105.137"/>
<path d="M69.02 439.559V441.926H55.773C55.754 441.336 55.852 440.766 56.059 440.215 56.395 439.312 56.934 438.426 57.676 437.551 58.418 436.676 59.496 435.664 60.898 434.516 63.078 432.73 64.551 431.316 65.312 430.27 66.082 429.227 66.465 428.238 66.465 427.309 66.465 426.336 66.113 425.516 65.414 424.848 64.719 424.176 63.809 423.84 62.688 423.84 61.504 423.84 60.559 424.195 59.844 424.906 59.133 425.617 58.773 426.598 58.766 427.855L56.234 427.598C56.41 425.711 57.059 424.273 58.188 423.285 59.32 422.297 60.84 421.801 62.746 421.801 64.668 421.801 66.188 422.336 67.309 423.402 68.434 424.469 68.992 425.789 68.992 427.367 68.992 428.168 68.828 428.957 68.5 429.734 68.172 430.508 67.629 431.32 66.867 432.18 66.105 433.035 64.844 434.211 63.074 435.703 61.594 436.945 60.645 437.785 60.227 438.23 59.809 438.668 59.465 439.113 59.188 439.559ZM69.02 439.559"/>
<path d="M71.66 436.676 74.242 436.457C74.434 437.715 74.879 438.66 75.574 439.297 76.273 439.93 77.113 440.246 78.102 440.246 79.285 440.246 80.285 439.801 81.105 438.906 81.926 438.012 82.336 436.828 82.336 435.352 82.336 433.949 81.941 432.84 81.152 432.031 80.367 431.215 79.332 430.809 78.055 430.809 77.262 430.809 76.547 430.988 75.906 431.352 75.273 431.711 74.773 432.176 74.406 432.75L72.098 432.449 74.035 422.156H84.008V424.508H76.004L74.93 429.895C76.129 429.055 77.391 428.637 78.711 428.637 80.461 428.637 81.938 429.242 83.141 430.453 84.344 431.668 84.945 433.227 84.945 435.133 84.945 436.945 84.418 438.516 83.363 439.836 82.078 441.457 80.324 442.266 78.102 442.266 76.277 442.266 74.789 441.758 73.633 440.734 72.48 439.715 71.824 438.363 71.66 436.676ZM71.66 436.676"/>
<path d="M87.23 432.043C87.23 429.672 87.477 427.766 87.961 426.32 88.449 424.875 89.172 423.762 90.133 422.977 91.094 422.195 92.305 421.801 93.766 421.801 94.84 421.801 95.785 422.02 96.594 422.453 97.406 422.887 98.074 423.508 98.602 424.324 99.133 425.141 99.551 426.133 99.848 427.305 100.148 428.473 100.301 430.055 100.301 432.043 100.301 434.395 100.059 436.293 99.574 437.734 99.094 439.18 98.371 440.297 97.41 441.086 96.449 441.875 95.234 442.266 93.766 442.266 91.832 442.266 90.316 441.574 89.215 440.188 87.895 438.52 87.23 435.805 87.23 432.043ZM89.762 432.043C89.762 435.332 90.145 437.523 90.914 438.613 91.688 439.703 92.637 440.246 93.766 440.246 94.895 440.246 95.848 439.699 96.617 438.605 97.387 437.512 97.77 435.324 97.77 432.043 97.77 428.742 97.387 426.551 96.617 425.469 95.848 424.383 94.887 423.84 93.738 423.84 92.609 423.84 91.707 424.316 91.031 425.273 90.184 426.496 89.762 428.75 89.762 432.043ZM89.762 432.043"/>
<g clip-path="url(#clip_13)">
<path stroke-width=".8" stroke-linecap="square" stroke-linejoin="round" fill="none" stroke="#b0b0b0" stroke-opacity=".15" d="M108.637 366.852H849.676"/>
</g>
<path stroke-width=".8" stroke-linecap="butt" stroke-linejoin="round" fill="none" stroke="#000000" d="M108.637 366.852H105.137"/>
<path d="M56.086 371.621 58.668 371.402C58.859 372.66 59.305 373.605 60.004 374.242 60.699 374.875 61.543 375.191 62.527 375.191 63.711 375.191 64.715 374.746 65.531 373.852 66.352 372.957 66.762 371.773 66.762 370.297 66.762 368.895 66.367 367.785 65.582 366.977 64.793 366.16 63.762 365.754 62.484 365.754 61.691 365.754 60.973 365.934 60.336 366.297 59.699 366.656 59.199 367.121 58.836 367.695L56.523 367.395 58.465 357.102H68.434V359.453H60.434L59.355 364.84C60.559 364 61.82 363.582 63.141 363.582 64.891 363.582 66.367 364.188 67.566 365.398 68.773 366.613 69.375 368.172 69.375 370.078 69.375 371.891 68.848 373.461 67.789 374.781 66.504 376.402 64.75 377.211 62.527 377.211 60.703 377.211 59.215 376.703 58.062 375.68 56.91 374.66 56.25 373.309 56.086 371.621ZM56.086 371.621"/>
<path d="M71.66 366.988C71.66 364.617 71.902 362.711 72.391 361.266 72.879 359.82 73.602 358.707 74.559 357.922 75.523 357.141 76.734 356.746 78.191 356.746 79.27 356.746 80.211 356.965 81.023 357.398 81.832 357.832 82.504 358.453 83.031 359.27 83.562 360.086 83.977 361.078 84.277 362.25 84.578 363.418 84.727 365 84.727 366.988 84.727 369.34 84.484 371.238 84 372.68 83.52 374.125 82.797 375.242 81.836 376.031 80.875 376.82 79.66 377.211 78.191 377.211 76.262 377.211 74.746 376.52 73.641 375.133 72.32 373.465 71.66 370.75 71.66 366.988ZM74.188 366.988C74.188 370.277 74.574 372.469 75.344 373.559 76.113 374.648 77.062 375.191 78.191 375.191 79.324 375.191 80.273 374.645 81.043 373.551 81.812 372.457 82.199 370.27 82.199 366.988 82.199 363.688 81.812 361.496 81.043 360.414 80.273 359.328 79.316 358.785 78.164 358.785 77.035 358.785 76.133 359.262 75.457 360.219 74.613 361.441 74.188 363.695 74.188 366.988ZM74.188 366.988"/>
<path d="M87.23 366.988C87.23 364.617 87.477 362.711 87.961 361.266 88.449 359.82 89.172 358.707 90.133 357.922 91.094 357.141 92.305 356.746 93.766 356.746 94.84 356.746 95.785 356.965 96.594 357.398 97.406 357.832 98.074 358.453 98.602 359.27 99.133 360.086 99.551 361.078 99.848 362.25 100.148 363.418 100.301 365 100.301 366.988 100.301 369.34 100.059 371.238 99.574 372.68 99.094 374.125 98.371 375.242 97.41 376.031 96.449 376.82 95.234 377.211 93.766 377.211 91.832 377.211 90.316 376.52 89.215 375.133 87.895 373.465 87.23 370.75 87.23 366.988ZM89.762 366.988C89.762 370.277 90.145 372.469 90.914 373.559 91.688 374.648 92.637 375.191 93.766 375.191 94.895 375.191 95.848 374.645 96.617 373.551 97.387 372.457 97.77 370.27 97.77 366.988 97.77 363.688 97.387 361.496 96.617 360.414 95.848 359.328 94.887 358.785 93.738 358.785 92.609 358.785 91.707 359.262 91.031 360.219 90.184 361.441 89.762 363.695 89.762 366.988ZM89.762 366.988"/>
<g clip-path="url(#clip_14)">
<path stroke-width=".8" stroke-linecap="square" stroke-linejoin="round" fill="none" stroke="#b0b0b0" stroke-opacity=".15" d="M108.637 301.797H849.676"/>
</g>
<path stroke-width=".8" stroke-linecap="butt" stroke-linejoin="round" fill="none" stroke="#000000" d="M108.637 301.797H105.137"/>
<path d="M56.25 294.398V292.031H69.227V293.949C67.949 295.305 66.684 297.109 65.43 299.359 64.176 301.613 63.211 303.93 62.527 306.309 62.035 307.984 61.719 309.82 61.582 311.816H59.055C59.078 310.238 59.391 308.336 59.98 306.102 60.574 303.867 61.422 301.715 62.531 299.641 63.641 297.566 64.82 295.82 66.066 294.398ZM56.25 294.398"/>
<path d="M71.66 306.566 74.242 306.348C74.434 307.605 74.879 308.551 75.574 309.188 76.273 309.82 77.113 310.137 78.102 310.137 79.285 310.137 80.285 309.691 81.105 308.797 81.926 307.902 82.336 306.719 82.336 305.242 82.336 303.84 81.941 302.73 81.152 301.922 80.367 301.105 79.332 300.699 78.055 300.699 77.262 300.699 76.547 300.883 75.906 301.242 75.273 301.602 74.773 302.066 74.406 302.641L72.098 302.34 74.035 292.047H84.008V294.398H76.004L74.93 299.785C76.129 298.945 77.391 298.527 78.711 298.527 80.461 298.527 81.938 299.133 83.141 300.344 84.344 301.559 84.945 303.117 84.945 305.023 84.945 306.836 84.418 308.406 83.363 309.727 82.078 311.348 80.324 312.156 78.102 312.156 76.277 312.156 74.789 311.648 73.633 310.625 72.48 309.605 71.824 308.254 71.66 306.566ZM71.66 306.566"/>
<path d="M87.23 301.934C87.23 299.562 87.477 297.656 87.961 296.211 88.449 294.766 89.172 293.652 90.133 292.867 91.094 292.086 92.305 291.691 93.766 291.691 94.84 291.691 95.785 291.91 96.594 292.344 97.406 292.777 98.074 293.398 98.602 294.215 99.133 295.031 99.551 296.023 99.848 297.195 100.148 298.367 100.301 299.945 100.301 301.934 100.301 304.285 100.059 306.184 99.574 307.625 99.094 309.07 98.371 310.188 97.41 310.977 96.449 311.766 95.234 312.156 93.766 312.156 91.832 312.156 90.316 311.465 89.215 310.078 87.895 308.41 87.23 305.695 87.23 301.934ZM89.762 301.934C89.762 305.223 90.145 307.414 90.914 308.504 91.688 309.594 92.637 310.137 93.766 310.137 94.895 310.137 95.848 309.59 96.617 308.496 97.387 307.402 97.77 305.215 97.77 301.934 97.77 298.633 97.387 296.441 96.617 295.359 95.848 294.273 94.887 293.73 93.738 293.73 92.609 293.73 91.707 294.211 91.031 295.164 90.184 296.387 89.762 298.641 89.762 301.934ZM89.762 301.934"/>
<g clip-path="url(#clip_15)">
<path stroke-width=".8" stroke-linecap="square" stroke-linejoin="round" fill="none" stroke="#b0b0b0" stroke-opacity=".15" d="M108.637 236.742H849.676"/>
</g>
<path stroke-width=".8" stroke-linecap="butt" stroke-linejoin="round" fill="none" stroke="#000000" d="M108.637 236.742H105.137"/>
<path d="M49.781 246.762H47.324V231.082C46.73 231.645 45.953 232.211 44.992 232.773 44.031 233.34 43.168 233.766 42.402 234.047V231.668C43.777 231.02 44.98 230.238 46.012 229.32 47.043 228.398 47.77 227.504 48.199 226.637H49.781ZM49.781 246.762"/>
<path d="M56.09 236.879C56.09 234.508 56.332 232.602 56.82 231.156 57.309 229.711 58.031 228.598 58.988 227.812 59.953 227.031 61.164 226.637 62.621 226.637 63.699 226.637 64.641 226.855 65.453 227.289 66.262 227.723 66.934 228.344 67.461 229.16 67.992 229.977 68.406 230.969 68.707 232.141 69.008 233.312 69.156 234.891 69.156 236.879 69.156 239.23 68.914 241.129 68.43 242.57 67.949 244.016 67.227 245.133 66.266 245.922 65.305 246.711 64.09 247.102 62.621 247.102 60.691 247.102 59.172 246.41 58.07 245.023 56.75 243.355 56.09 240.641 56.09 236.879ZM58.617 236.879C58.617 240.168 59.004 242.359 59.773 243.449 60.543 244.539 61.492 245.082 62.621 245.082 63.754 245.082 64.703 244.535 65.473 243.441 66.242 242.348 66.629 240.16 66.629 236.879 66.629 233.578 66.242 231.387 65.473 230.305 64.703 229.219 63.742 228.676 62.594 228.676 61.465 228.676 60.562 229.156 59.887 230.109 59.039 231.332 58.617 233.586 58.617 236.879ZM58.617 236.879"/>
<path d="M71.66 236.879C71.66 234.508 71.906 232.602 72.391 231.156 72.879 229.711 73.602 228.598 74.562 227.812 75.523 227.031 76.734 226.637 78.191 226.637 79.27 226.637 80.215 226.855 81.023 227.289 81.836 227.723 82.504 228.344 83.031 229.16 83.562 229.977 83.977 230.969 84.277 232.141 84.578 233.312 84.73 234.891 84.73 236.879 84.73 239.23 84.488 241.129 84.004 242.57 83.523 244.016 82.801 245.133 81.836 245.922 80.879 246.711 79.664 247.102 78.191 247.102 76.262 247.102 74.746 246.41 73.645 245.023 72.32 243.355 71.66 240.641 71.66 236.879ZM74.191 236.879C74.191 240.168 74.574 242.359 75.344 243.449 76.113 244.539 77.066 245.082 78.191 245.082 79.324 245.082 80.277 244.535 81.047 243.441 81.816 242.348 82.199 240.16 82.199 236.879 82.199 233.578 81.816 231.387 81.047 230.305 80.277 229.219 79.316 228.676 78.168 228.676 77.039 228.676 76.137 229.156 75.457 230.109 74.613 231.332 74.191 233.586 74.191 236.879ZM74.191 236.879"/>
<path d="M87.234 236.879C87.234 234.508 87.477 232.602 87.965 231.156 88.453 229.711 89.176 228.598 90.133 227.812 91.098 227.031 92.309 226.637 93.766 226.637 94.844 226.637 95.785 226.855 96.598 227.289 97.406 227.723 98.078 228.344 98.605 229.16 99.137 229.977 99.551 230.969 99.852 232.141 100.152 233.312 100.301 234.891 100.301 236.879 100.301 239.23 100.059 241.129 99.574 242.57 99.094 244.016 98.371 245.133 97.41 245.922 96.449 246.711 95.234 247.102 93.766 247.102 91.836 247.102 90.316 246.41 89.215 245.023 87.895 243.355 87.234 240.641 87.234 236.879ZM89.762 236.879C89.762 240.168 90.148 242.359 90.918 243.449 91.688 244.539 92.637 245.082 93.766 245.082 94.898 245.082 95.848 244.535 96.617 243.441 97.387 242.348 97.773 240.16 97.773 236.879 97.773 233.578 97.387 231.387 96.617 230.305 95.848 229.219 94.887 228.676 93.738 228.676 92.609 228.676 91.707 229.156 91.031 230.109 90.184 231.332 89.762 233.586 89.762 236.879ZM89.762 236.879"/>
<g clip-path="url(#clip_16)">
<path stroke-width=".8" stroke-linecap="square" stroke-linejoin="round" fill="none" stroke="#b0b0b0" stroke-opacity=".15" d="M108.637 171.688H849.676"/>
</g>
<path stroke-width=".8" stroke-linecap="butt" stroke-linejoin="round" fill="none" stroke="#000000" d="M108.637 171.688H105.137"/>
<path d="M49.781 181.707H47.324V166.027C46.73 166.59 45.953 167.156 44.992 167.723 44.031 168.285 43.168 168.711 42.402 168.992V166.613C43.777 165.965 44.98 165.184 46.012 164.266 47.043 163.344 47.77 162.449 48.199 161.582H49.781ZM49.781 181.707"/>
<path d="M69.023 179.34V181.707H55.773C55.758 181.117 55.852 180.547 56.059 179.996 56.398 179.098 56.938 178.207 57.676 177.332 58.422 176.457 59.496 175.445 60.902 174.297 63.082 172.512 64.551 171.098 65.316 170.051 66.082 169.008 66.465 168.02 66.465 167.09 66.465 166.117 66.117 165.297 65.418 164.629 64.719 163.957 63.812 163.621 62.691 163.621 61.508 163.621 60.559 163.977 59.848 164.688 59.137 165.398 58.777 166.379 58.766 167.637L56.238 167.379C56.41 165.492 57.059 164.055 58.188 163.066 59.32 162.078 60.84 161.582 62.746 161.582 64.672 161.582 66.191 162.117 67.312 163.184 68.434 164.25 68.996 165.57 68.996 167.148 68.996 167.949 68.832 168.738 68.5 169.516 68.176 170.289 67.629 171.102 66.871 171.961 66.109 172.816 64.844 173.992 63.074 175.488 61.598 176.727 60.648 177.566 60.227 178.012 59.812 178.449 59.465 178.895 59.191 179.34ZM69.023 179.34"/>
<path d="M71.66 176.457 74.242 176.238C74.434 177.496 74.879 178.441 75.578 179.078 76.273 179.711 77.117 180.027 78.102 180.027 79.285 180.027 80.289 179.582 81.105 178.688 81.926 177.793 82.336 176.609 82.336 175.133 82.336 173.73 81.941 172.621 81.156 171.812 80.367 170.996 79.336 170.59 78.059 170.59 77.266 170.59 76.547 170.773 75.91 171.133 75.273 171.492 74.773 171.957 74.41 172.535L72.098 172.23 74.035 161.938H84.008V164.289H76.004L74.93 169.676C76.133 168.836 77.395 168.418 78.715 168.418 80.465 168.418 81.941 169.023 83.141 170.238 84.348 171.449 84.949 173.008 84.949 174.914 84.949 176.727 84.422 178.297 83.363 179.617 82.078 181.238 80.324 182.051 78.102 182.051 76.277 182.051 74.789 181.539 73.633 180.52 72.484 179.496 71.824 178.145 71.66 176.457ZM71.66 176.457"/>
<path d="M87.234 171.824C87.234 169.453 87.477 167.547 87.965 166.102 88.453 164.656 89.176 163.543 90.133 162.758 91.098 161.977 92.309 161.582 93.766 161.582 94.844 161.582 95.785 161.801 96.598 162.234 97.406 162.668 98.078 163.289 98.605 164.105 99.137 164.922 99.551 165.914 99.852 167.086 100.152 168.258 100.301 169.836 100.301 171.824 100.301 174.176 100.059 176.074 99.574 177.516 99.094 178.961 98.371 180.078 97.41 180.867 96.449 181.656 95.234 182.051 93.766 182.051 91.836 182.051 90.316 181.355 89.215 179.973 87.895 178.301 87.234 175.586 87.234 171.824ZM89.762 171.824C89.762 175.113 90.148 177.305 90.918 178.395 91.688 179.484 92.637 180.027 93.766 180.027 94.898 180.027 95.848 179.48 96.617 178.387 97.387 177.293 97.773 175.105 97.773 171.824 97.773 168.523 97.387 166.332 96.617 165.25 95.848 164.164 94.887 163.621 93.738 163.621 92.609 163.621 91.707 164.102 91.031 165.055 90.184 166.277 89.762 168.531 89.762 171.824ZM89.762 171.824"/>
<g clip-path="url(#clip_17)">
<path stroke-width=".8" stroke-linecap="square" stroke-linejoin="round" fill="none" stroke="#b0b0b0" stroke-opacity=".15" d="M108.637 106.633H849.676"/>
</g>
<path stroke-width=".8" stroke-linecap="butt" stroke-linejoin="round" fill="none" stroke="#000000" d="M108.637 106.633H105.137"/>
<path d="M49.781 116.652H47.324V100.973C46.73 101.535 45.953 102.102 44.992 102.668 44.031 103.23 43.168 103.656 42.402 103.938V101.559C43.777 100.91 44.98 100.129 46.012 99.211 47.043 98.289 47.77 97.395 48.199 96.527H49.781ZM49.781 116.652"/>
<path d="M56.09 111.402 58.672 111.184C58.863 112.441 59.309 113.387 60.004 114.023 60.703 114.656 61.543 114.973 62.527 114.973 63.715 114.973 64.715 114.527 65.535 113.633 66.355 112.738 66.766 111.555 66.766 110.078 66.766 108.676 66.371 107.566 65.582 106.758 64.797 105.941 63.762 105.535 62.484 105.535 61.691 105.535 60.977 105.719 60.336 106.078 59.703 106.438 59.203 106.902 58.836 107.48L56.527 107.176 58.465 96.883H68.434V99.234H60.434L59.355 104.621C60.559 103.781 61.82 103.363 63.141 103.363 64.891 103.363 66.367 103.969 67.57 105.184 68.773 106.395 69.375 107.953 69.375 109.859 69.375 111.672 68.848 113.242 67.793 114.562 66.508 116.184 64.75 116.996 62.527 116.996 60.707 116.996 59.219 116.484 58.062 115.465 56.91 114.441 56.254 113.09 56.09 111.402ZM56.09 111.402"/>
<path d="M71.66 106.77C71.66 104.398 71.906 102.492 72.391 101.047 72.879 99.602 73.602 98.488 74.562 97.703 75.523 96.922 76.734 96.527 78.191 96.527 79.27 96.527 80.215 96.746 81.023 97.18 81.836 97.613 82.504 98.234 83.031 99.051 83.562 99.867 83.977 100.859 84.277 102.031 84.578 103.203 84.73 104.781 84.73 106.77 84.73 109.121 84.488 111.02 84.004 112.461 83.523 113.906 82.801 115.023 81.836 115.812 80.879 116.602 79.664 116.996 78.191 116.996 76.262 116.996 74.746 116.301 73.645 114.918 72.32 113.246 71.66 110.531 71.66 106.77ZM74.191 106.77C74.191 110.059 74.574 112.25 75.344 113.34 76.113 114.43 77.066 114.973 78.191 114.973 79.324 114.973 80.277 114.426 81.047 113.332 81.816 112.238 82.199 110.051 82.199 106.77 82.199 103.469 81.816 101.277 81.047 100.195 80.277 99.109 79.316 98.566 78.168 98.566 77.039 98.566 76.137 99.047 75.457 100 74.613 101.223 74.191 103.477 74.191 106.77ZM74.191 106.77"/>
<path d="M87.234 106.77C87.234 104.398 87.477 102.492 87.965 101.047 88.453 99.602 89.176 98.488 90.133 97.703 91.098 96.922 92.309 96.527 93.766 96.527 94.844 96.527 95.785 96.746 96.598 97.18 97.406 97.613 98.078 98.234 98.605 99.051 99.137 99.867 99.551 100.859 99.852 102.031 100.152 103.203 100.301 104.781 100.301 106.77 100.301 109.121 100.059 111.02 99.574 112.461 99.094 113.906 98.371 115.023 97.41 115.812 96.449 116.602 95.234 116.996 93.766 116.996 91.836 116.996 90.316 116.301 89.215 114.918 87.895 113.246 87.234 110.531 87.234 106.77ZM89.762 106.77C89.762 110.059 90.148 112.25 90.918 113.34 91.688 114.43 92.637 114.973 93.766 114.973 94.898 114.973 95.848 114.426 96.617 113.332 97.387 112.238 97.773 110.051 97.773 106.77 97.773 103.469 97.387 101.277 96.617 100.195 95.848 99.109 94.887 98.566 93.738 98.566 92.609 98.566 91.707 99.047 91.031 100 90.184 101.223 89.762 103.477 89.762 106.77ZM89.762 106.77"/>
<g clip-path="url(#clip_18)">
<path stroke-width=".8" stroke-linecap="square" stroke-linejoin="round" fill="none" stroke="#b0b0b0" stroke-opacity=".15" d="M108.637 41.578H849.676"/>
</g>
<path stroke-width=".8" stroke-linecap="butt" stroke-linejoin="round" fill="none" stroke="#000000" d="M108.637 41.578H105.137"/>
<path d="M49.781 51.598H47.324V35.918C46.73 36.48 45.953 37.047 44.992 37.613 44.031 38.176 43.168 38.602 42.402 38.883V36.504C43.777 35.855 44.98 35.074 46.012 34.156 47.043 33.234 47.77 32.34 48.199 31.473H49.781ZM49.781 51.598"/>
<path d="M56.25 34.18V31.816H69.227V33.73C67.949 35.086 66.684 36.891 65.43 39.145 64.18 41.395 63.211 43.711 62.527 46.09 62.035 47.766 61.723 49.602 61.586 51.598H59.055C59.082 50.02 59.391 48.117 59.984 45.883 60.574 43.648 61.426 41.496 62.535 39.422 63.641 37.348 64.82 35.602 66.07 34.18ZM56.25 34.18"/>
<path d="M71.66 46.348 74.242 46.129C74.434 47.387 74.879 48.332 75.578 48.969 76.273 49.602 77.117 49.918 78.102 49.918 79.285 49.918 80.289 49.473 81.105 48.578 81.926 47.684 82.336 46.5 82.336 45.023 82.336 43.621 81.941 42.512 81.156 41.703 80.367 40.887 79.336 40.48 78.059 40.48 77.266 40.48 76.547 40.664 75.91 41.023 75.273 41.383 74.773 41.848 74.41 42.426L72.098 42.121 74.035 31.828H84.008V34.18H76.004L74.93 39.566C76.133 38.727 77.395 38.309 78.715 38.309 80.465 38.309 81.941 38.914 83.141 40.129 84.348 41.34 84.949 42.898 84.949 44.805 84.949 46.617 84.422 48.188 83.363 49.508 82.078 51.129 80.324 51.941 78.102 51.941 76.277 51.941 74.789 51.43 73.633 50.41 72.484 49.387 71.824 48.035 71.66 46.348ZM71.66 46.348"/>
<path d="M87.234 41.715C87.234 39.344 87.477 37.438 87.965 35.992 88.453 34.547 89.176 33.434 90.133 32.648 91.098 31.867 92.309 31.473 93.766 31.473 94.844 31.473 95.785 31.691 96.598 32.125 97.406 32.559 98.078 33.18 98.605 33.996 99.137 34.812 99.551 35.805 99.852 36.977 100.152 38.148 100.301 39.727 100.301 41.715 100.301 44.066 100.059 45.965 99.574 47.406 99.094 48.852 98.371 49.969 97.41 50.758 96.449 51.547 95.234 51.941 93.766 51.941 91.836 51.941 90.316 51.246 89.215 49.863 87.895 48.191 87.234 45.477 87.234 41.715ZM89.762 41.715C89.762 45.004 90.148 47.195 90.918 48.285 91.688 49.375 92.637 49.918 93.766 49.918 94.898 49.918 95.848 49.371 96.617 48.277 97.387 47.184 97.773 44.996 97.773 41.715 97.773 38.414 97.387 36.223 96.617 35.141 95.848 34.055 94.887 33.512 93.738 33.512 92.609 33.512 91.707 33.992 91.031 34.945 90.184 36.168 89.762 38.422 89.762 41.715ZM89.762 41.715"/>
<path d="M29.039 335.023V339.738L24.16 341.613V350.199L29.039 351.973V356.57L7.566 348.207V343.621ZM20.539 343.004 12.57 345.965 20.539 348.863ZM20.539 343.004"/>
<path d="M29.039 329.602 13.48 335.871V331.551L21.422 328.621 24.074 327.766C23.398 327.547 22.953 327.406 22.738 327.344 22.301 327.207 21.863 327.062 21.422 326.906L13.48 323.945V319.715L29.039 325.891ZM29.039 329.602"/>
<path d="M24.09 308.188 24.777 304.086C26.281 304.609 27.426 305.441 28.215 306.582 29 307.719 29.391 309.141 29.391 310.848 29.391 313.555 28.508 315.559 26.738 316.859 25.32 317.883 23.535 318.395 21.379 318.395 18.801 318.395 16.781 317.723 15.324 316.375 13.859 315.023 13.129 313.32 13.129 311.262 13.129 308.945 13.895 307.117 15.422 305.781 16.949 304.445 19.293 303.805 22.449 303.863V314.176C23.668 314.145 24.617 313.812 25.297 313.18 25.977 312.543 26.316 311.754 26.316 310.805 26.316 310.164 26.141 309.621 25.789 309.184 25.438 308.742 24.871 308.41 24.09 308.188ZM19.926 307.953C18.734 307.98 17.832 308.289 17.211 308.875 16.59 309.461 16.281 310.172 16.281 311.012 16.281 311.91 16.605 312.652 17.258 313.238 17.914 313.824 18.805 314.109 19.926 314.102ZM19.926 307.953"/>
<path d="M29.039 296.57V300.684H13.48V296.859H15.695C14.648 296.207 13.961 295.617 13.633 295.098 13.297 294.574 13.129 293.98 13.129 293.316 13.129 292.379 13.391 291.477 13.906 290.605L17.492 291.883C17.047 292.574 16.824 293.219 16.824 293.812 16.824 294.391 16.984 294.879 17.301 295.281 17.617 295.68 18.191 295.996 19.023 296.227 19.852 296.453 21.586 296.57 24.234 296.57ZM29.039 296.57"/>
<path d="M18.23 285.758 17.555 289.492C16.051 289.074 14.938 288.352 14.219 287.328 13.492 286.301 13.129 284.777 13.129 282.758 13.129 280.918 13.348 279.551 13.781 278.656 14.215 277.754 14.766 277.121 15.438 276.758 16.105 276.391 17.332 276.207 19.121 276.207L23.926 276.25C25.293 276.25 26.305 276.184 26.953 276.055 27.602 275.922 28.297 275.676 29.039 275.312V279.387C28.766 279.492 28.359 279.625 27.824 279.781 27.578 279.848 27.414 279.898 27.336 279.93 28.023 280.633 28.535 281.383 28.879 282.184 29.219 282.984 29.391 283.84 29.391 284.75 29.391 286.348 28.957 287.609 28.086 288.535 27.219 289.457 26.121 289.918 24.793 289.918 23.91 289.918 23.125 289.711 22.438 289.289 21.75 288.867 21.227 288.281 20.859 287.523 20.492 286.766 20.172 285.676 19.898 284.246 19.535 282.324 19.199 280.992 18.887 280.25H18.477C17.688 280.25 17.125 280.445 16.785 280.836 16.449 281.227 16.281 281.961 16.281 283.047 16.281 283.781 16.422 284.352 16.711 284.762 17 285.172 17.504 285.504 18.23 285.758ZM21.566 280.25C21.742 280.777 21.953 281.613 22.199 282.758 22.445 283.898 22.684 284.645 22.918 284.996 23.297 285.535 23.781 285.805 24.367 285.805 24.941 285.805 25.438 285.59 25.859 285.16 26.281 284.73 26.488 284.18 26.488 283.516 26.488 282.773 26.246 282.066 25.758 281.391 25.387 280.895 24.93 280.57 24.395 280.414 24.043 280.305 23.375 280.25 22.387 280.25ZM21.566 280.25"/>
<path d="M30.066 272.531 30.637 267.828C31.184 267.75 31.559 267.57 31.762 267.285 32.055 266.895 32.203 266.281 32.203 265.438 32.203 264.367 32.043 263.562 31.719 263.023 31.504 262.664 31.156 262.391 30.68 262.203 30.34 262.078 29.711 262.012 28.789 262.012H26.516C28.199 263.242 29.039 264.797 29.039 266.672 29.039 268.762 28.156 270.418 26.387 271.637 24.988 272.594 23.25 273.07 21.172 273.07 18.562 273.07 16.57 272.445 15.195 271.191 13.82 269.934 13.129 268.375 13.129 266.508 13.129 264.586 13.977 263 15.664 261.75H13.48V257.898H27.441C29.277 257.898 30.648 258.047 31.555 258.352 32.465 258.656 33.18 259.078 33.695 259.625 34.211 260.172 34.617 260.902 34.914 261.816 35.207 262.727 35.352 263.883 35.352 265.281 35.352 267.918 34.902 269.789 34 270.891 33.094 271.992 31.949 272.547 30.562 272.547 30.426 272.547 30.258 272.539 30.066 272.531ZM20.938 268.852C22.59 268.852 23.797 268.531 24.566 267.895 25.332 267.254 25.715 266.465 25.715 265.527 25.715 264.523 25.32 263.672 24.535 262.977 23.746 262.285 22.582 261.938 21.043 261.938 19.43 261.938 18.234 262.27 17.453 262.938 16.672 263.598 16.281 264.438 16.281 265.453 16.281 266.441 16.664 267.254 17.434 267.895 18.199 268.531 19.367 268.852 20.938 268.852ZM20.938 268.852"/>
<path d="M24.09 244.816 24.777 240.715C26.281 241.238 27.426 242.074 28.215 243.215 29 244.352 29.391 245.773 29.391 247.48 29.391 250.184 28.508 252.188 26.738 253.488 25.32 254.512 23.535 255.027 21.379 255.027 18.801 255.027 16.781 254.352 15.324 253.004 13.859 251.656 13.129 249.949 13.129 247.891 13.129 245.574 13.895 243.75 15.422 242.41 16.949 241.074 19.293 240.434 22.449 240.496V250.809C23.668 250.777 24.617 250.441 25.297 249.809 25.977 249.176 26.316 248.383 26.316 247.438 26.316 246.793 26.141 246.254 25.789 245.816 25.438 245.375 24.871 245.043 24.09 244.816ZM19.926 244.582C18.734 244.609 17.832 244.918 17.211 245.504 16.59 246.09 16.281 246.801 16.281 247.645 16.281 248.539 16.605 249.281 17.258 249.871 17.914 250.453 18.805 250.742 19.926 250.73ZM19.926 244.582"/>
<path d="M22.051 229.875 21.641 225.656C23.059 225.398 24.098 224.883 24.766 224.109 25.426 223.336 25.758 222.289 25.758 220.969 25.758 219.57 25.461 218.52 24.871 217.812 24.281 217.105 23.59 216.75 22.801 216.75 22.289 216.75 21.859 216.898 21.5 217.195 21.145 217.492 20.836 218.012 20.574 218.758 20.395 219.262 20.082 220.418 19.637 222.227 19.059 224.551 18.352 226.18 17.512 227.117 16.328 228.438 14.887 229.098 13.191 229.098 12.098 229.098 11.074 228.789 10.121 228.168 9.168 227.547 8.441 226.652 7.945 225.488 7.449 224.32 7.199 222.91 7.199 221.258 7.199 218.566 7.789 216.539 8.973 215.176 10.152 213.812 11.73 213.098 13.703 213.027L13.895 217.363C12.789 217.547 11.996 217.945 11.512 218.559 11.027 219.168 10.785 220.086 10.785 221.305 10.785 222.566 11.047 223.551 11.562 224.266 11.895 224.723 12.34 224.953 12.895 224.953 13.406 224.953 13.84 224.738 14.199 224.305 14.656 223.758 15.137 222.43 15.637 220.32 16.133 218.211 16.648 216.652 17.184 215.645 17.715 214.633 18.441 213.84 19.363 213.273 20.285 212.699 21.426 212.414 22.785 212.414 24.016 212.414 25.164 212.758 26.242 213.441 27.316 214.121 28.113 215.086 28.637 216.336 29.156 217.586 29.418 219.145 29.418 221.012 29.418 223.727 28.793 225.812 27.539 227.27 26.281 228.723 24.453 229.59 22.051 229.875ZM22.051 229.875"/>
<path d="M18.078 195.23 18.816 199.285C18.004 199.422 17.391 199.734 16.984 200.219 16.574 200.703 16.367 201.328 16.367 202.098 16.367 203.125 16.723 203.945 17.434 204.555 18.141 205.164 19.32 205.469 20.98 205.469 22.828 205.469 24.133 205.16 24.895 204.539 25.656 203.918 26.035 203.086 26.035 202.043 26.035 201.262 25.812 200.621 25.367 200.125 24.926 199.625 24.16 199.273 23.078 199.07L23.766 195.023C25.621 195.445 27.023 196.25 27.969 197.445 28.918 198.633 29.391 200.23 29.391 202.234 29.391 204.508 28.672 206.324 27.238 207.676 25.801 209.027 23.812 209.703 21.277 209.703 18.707 209.703 16.707 209.023 15.277 207.668 13.844 206.312 13.129 204.477 13.129 202.16 13.129 200.266 13.539 198.758 14.352 197.641 15.168 196.523 16.41 195.719 18.078 195.23ZM18.078 195.23"/>
<path d="M21.043 193.062C19.672 193.062 18.352 192.727 17.07 192.051 15.789 191.375 14.812 190.422 14.141 189.188 13.469 187.953 13.129 186.574 13.129 185.047 13.129 182.695 13.895 180.766 15.422 179.266 16.949 177.762 18.883 177.008 21.215 177.008 23.57 177.008 25.52 177.77 27.07 179.289 28.617 180.805 29.391 182.719 29.391 185.02 29.391 186.445 29.07 187.805 28.426 189.098 27.777 190.391 26.832 191.375 25.59 192.051 24.344 192.727 22.828 193.062 21.043 193.062ZM21.262 188.844C22.805 188.844 23.984 188.48 24.805 187.75 25.625 187.016 26.035 186.109 26.035 185.035 26.035 183.961 25.625 183.059 24.805 182.336 23.984 181.605 22.793 181.242 21.23 181.242 19.707 181.242 18.539 181.605 17.719 182.336 16.898 183.059 16.484 183.961 16.484 185.035 16.484 186.109 16.898 187.016 17.719 187.75 18.539 188.48 19.719 188.844 21.262 188.844ZM21.262 188.844"/>
<path d="M29.039 169.844V173.961H13.48V170.137H15.695C14.648 169.48 13.961 168.895 13.633 168.371 13.297 167.852 13.129 167.258 13.129 166.59 13.129 165.652 13.391 164.75 13.906 163.883L17.492 165.156C17.047 165.852 16.824 166.496 16.824 167.09 16.824 167.668 16.984 168.156 17.301 168.555 17.617 168.957 18.191 169.27 19.023 169.504 19.852 169.73 21.586 169.844 24.234 169.844ZM29.039 169.844"/>
<path d="M24.09 153.102 24.777 149C26.281 149.527 27.426 150.359 28.215 151.5 29 152.637 29.391 154.059 29.391 155.766 29.391 158.473 28.508 160.477 26.738 161.773 25.32 162.801 23.535 163.312 21.379 163.312 18.801 163.312 16.781 162.641 15.324 161.293 13.859 159.941 13.129 158.238 13.129 156.18 13.129 153.863 13.895 152.035 15.422 150.699 16.949 149.359 19.293 148.723 22.449 148.781V159.094C23.668 159.062 24.617 158.73 25.297 158.094 25.977 157.461 26.316 156.672 26.316 155.723 26.316 155.078 26.141 154.539 25.789 154.102 25.438 153.66 24.871 153.328 24.09 153.102ZM19.926 152.867C18.734 152.898 17.832 153.203 17.211 153.793 16.59 154.375 16.281 155.09 16.281 155.93 16.281 156.828 16.605 157.57 17.258 158.156 17.914 158.742 18.805 159.027 19.926 159.02ZM19.926 152.867"/>
<path stroke-width=".8" stroke-linecap="square" stroke-miterlimit="4" stroke-linejoin="miter" fill="none" stroke="#000000" d="M108.637 496.961V7.199"/>
<path stroke-width=".8" stroke-linecap="square" stroke-miterlimit="4" stroke-linejoin="miter" fill="none" stroke="#000000" d="M849.676 496.961V7.199"/>
<path stroke-width=".8" stroke-linecap="square" stroke-miterlimit="4" stroke-linejoin="miter" fill="none" stroke="#000000" d="M108.637 496.961H849.676"/>
<path stroke-width=".8" stroke-linecap="square" stroke-miterlimit="4" stroke-linejoin="miter" fill="none" stroke="#000000" d="M108.637 7.199H849.676"/>
</g>
</svg>
